<svg version="1.1" id="Layer_1" xmlns="http://www.w3.org/2000/svg" xmlns:xlink="http://www.w3.org/1999/xlink" x="0px" y="0px"
	 width="100%" viewBox="0 0 666 612" enable-background="new 0 0 666 612" xml:space="preserve">
<path fill="#FFFFFF" opacity="1.000000" stroke="none" 
	d="
M366.000000,613.000000 
	C244.000015,613.000000 122.500046,613.000000 1.000049,613.000000 
	C1.000033,409.000061 1.000033,205.000122 1.000016,1.000131 
	C222.999893,1.000087 444.999786,1.000087 666.999756,1.000044 
	C666.999878,204.999863 666.999878,408.999725 666.999939,612.999756 
	C566.833313,613.000000 466.666656,613.000000 366.000000,613.000000 
M277.371185,515.807922 
	C279.016663,511.532715 281.702454,507.360931 282.139404,502.965576 
	C285.054810,473.637634 287.521729,444.264740 290.071869,414.900970 
	C292.204437,390.345917 294.250793,365.783356 296.338501,341.224396 
	C296.668945,337.336884 297.507812,333.490387 302.422729,333.730408 
	C307.217773,333.964630 307.746033,337.849457 308.064789,341.718109 
	C308.926300,352.173828 309.941315,362.616821 310.840912,373.069519 
	C314.582214,416.540192 318.306274,460.012390 322.029816,503.484589 
	C322.865265,513.238831 329.511932,521.151062 339.205780,522.958435 
	C343.545380,523.767517 348.115814,523.360291 352.582489,523.462219 
	C371.739868,523.899475 390.896698,524.367432 410.055511,524.730530 
	C421.621338,524.949768 430.052032,517.267395 430.273254,506.506622 
	C430.497040,495.620789 422.638580,487.737305 411.008942,487.280640 
	C406.514404,487.104156 402.012787,487.059052 397.514130,487.046173 
	C386.402985,487.014343 375.291687,487.035736 364.426483,487.035736 
	C354.727570,393.920654 346.360718,301.966675 351.459625,209.055389 
	C352.889191,209.055389 354.697906,209.055374 356.506592,209.055374 
	C394.999420,209.055374 433.492218,209.056076 471.985046,209.054886 
	C481.649902,209.054596 491.316559,209.163162 500.979095,209.011230 
	C509.966492,208.869904 516.246033,202.202530 516.111511,193.280762 
	C515.981689,184.672333 509.314270,178.190598 500.299927,178.012482 
	C495.802521,177.923615 491.301910,177.994431 486.802765,177.993820 
	C482.505066,177.993225 478.207397,177.993683 473.909698,177.993683 
	C474.829681,176.793488 475.750763,176.471054 476.669769,176.142685 
	C514.082886,162.774338 540.895447,137.881821 557.316589,101.776299 
	C558.037659,100.190849 557.737854,98.141113 557.913574,96.307640 
	C556.063293,96.312691 554.171387,96.067535 552.369995,96.366982 
	C545.335754,97.536270 538.377686,99.477692 531.304626,100.037521 
	C513.552856,101.442589 496.118042,98.221840 478.673187,95.464249 
	C434.068481,88.413368 396.302032,100.557915 366.799469,135.593094 
	C357.251221,146.931915 347.818512,158.369064 338.436768,169.846085 
	C336.568695,172.131348 335.173553,174.803223 333.293823,177.708801 
	C327.834808,177.708801 321.577301,177.708801 315.387054,177.708801 
	C314.241669,172.281982 315.112427,169.047592 320.804474,166.308243 
	C336.671997,158.671844 344.771759,140.229843 340.974640,123.042450 
	C337.002960,105.064857 321.505035,92.205322 303.214783,91.710884 
	C284.391724,91.202057 268.697998,103.355644 263.481445,122.481239 
	C259.041168,138.760849 267.198975,157.973145 283.101166,166.020111 
	C288.863342,168.935928 289.909363,172.205963 288.500549,177.742691 
	C282.245972,177.742691 275.999695,177.742691 270.143555,177.742691 
	C269.318115,175.611145 269.028473,173.503510 267.877502,172.104462 
	C258.038971,160.145523 247.997101,148.354218 238.105286,136.438690 
	C209.701706,102.224136 173.112137,89.187294 129.533081,94.778313 
	C102.689812,98.222206 75.955490,104.798386 49.001553,95.374306 
	C46.451775,94.482811 44.911499,96.393089 45.680683,99.224754 
	C46.070896,100.661278 46.693081,102.048798 47.329708,103.402344 
	C63.634739,138.068787 89.520287,162.367371 125.571411,175.656036 
	C126.869423,176.134460 128.151947,176.654938 129.647186,177.235626 
	C129.134979,177.695419 129.039291,177.856766 128.942566,177.857391 
	C120.612770,177.911591 112.280884,177.853745 103.953484,178.020325 
	C92.608688,178.247284 85.379822,188.711502 89.169594,199.242020 
	C91.394943,205.425507 97.138420,209.042419 104.972778,209.045258 
	C152.797195,209.062576 200.621613,209.054840 248.446030,209.055420 
	C250.209579,209.055450 251.973129,209.055405 253.978210,209.055405 
	C253.978210,210.646530 253.992523,211.628159 253.976196,212.609268 
	C253.067780,267.205017 256.171387,321.852539 250.152924,376.385040 
	C245.714996,416.596558 242.955429,456.992462 239.365662,497.298889 
	C238.382904,508.333588 242.400009,516.958740 250.915833,521.270264 
	C259.780762,525.758545 268.892303,524.037170 277.371185,515.807922 
M454.828186,329.499939 
	C454.828186,360.482544 454.763611,391.465393 454.887238,422.447510 
	C454.909698,428.079620 455.284363,433.778900 456.216949,439.326019 
	C459.019348,455.995300 466.773468,469.394592 483.161072,475.977173 
	C496.068939,481.162079 509.457977,481.288208 522.708252,477.241028 
	C536.684631,472.972137 546.369080,463.638428 550.424622,449.699310 
	C552.941711,441.047821 554.561890,431.818176 554.646423,422.829803 
	C555.064575,378.358734 554.928101,333.881287 554.770447,289.406860 
	C554.732788,278.764679 553.739929,268.127899 549.287415,258.215118 
	C540.777832,239.269943 523.027527,229.822388 500.408081,231.546295 
	C483.714874,232.818573 470.234772,239.319412 462.016815,254.345245 
	C456.586792,264.273529 454.903046,275.291260 454.845398,286.523560 
	C454.773560,300.515320 454.828186,314.507751 454.828186,329.499939 
M408.836761,309.500061 
	C408.836761,296.749725 408.836761,283.999359 408.836761,270.900574 
	C421.172333,270.900574 432.924286,270.900574 444.776611,270.900574 
	C444.776611,258.807190 444.776611,247.072357 444.776611,235.326904 
	C420.004944,235.326904 395.461212,235.326904 370.999878,235.326904 
	C370.999878,315.765259 370.999878,395.873444 370.999878,476.247101 
	C396.245483,476.247101 421.320251,476.247101 446.475006,476.247101 
	C446.475006,464.214752 446.475006,452.347198 446.475006,439.965027 
	C433.730133,439.965027 421.338715,439.965027 409.138153,439.965027 
	C409.138153,417.376404 409.138153,395.308929 409.138153,372.855652 
	C420.012604,372.855652 430.591278,372.855652 441.279114,372.855652 
	C441.279114,360.696594 441.279114,348.928772 441.279114,336.761719 
	C430.451263,336.761719 419.849152,336.761719 408.836761,336.761719 
	C408.836761,327.744781 408.836761,319.122467 408.836761,309.500061 
z"/>
<path fill="#010101" opacity="1.000000" stroke="none" 
	d="
M277.135345,516.084595 
	C268.892303,524.037170 259.780762,525.758545 250.915833,521.270264 
	C242.400009,516.958740 238.382904,508.333588 239.365662,497.298889 
	C242.955429,456.992462 245.714996,416.596558 250.152924,376.385040 
	C256.171387,321.852539 253.067780,267.205017 253.976196,212.609268 
	C253.992523,211.628159 253.978210,210.646530 253.978210,209.055405 
	C251.973129,209.055405 250.209579,209.055450 248.446030,209.055420 
	C200.621613,209.054840 152.797195,209.062576 104.972778,209.045258 
	C97.138420,209.042419 91.394943,205.425507 89.169594,199.242020 
	C85.379822,188.711502 92.608688,178.247284 103.953484,178.020325 
	C112.280884,177.853745 120.612770,177.911591 128.942566,177.857391 
	C129.039291,177.856766 129.134979,177.695419 129.647186,177.235626 
	C128.151947,176.654938 126.869423,176.134460 125.571411,175.656036 
	C89.520287,162.367371 63.634739,138.068787 47.329708,103.402344 
	C46.693081,102.048798 46.070896,100.661278 45.680683,99.224754 
	C44.911499,96.393089 46.451775,94.482811 49.001553,95.374306 
	C75.955490,104.798386 102.689812,98.222206 129.533081,94.778313 
	C173.112137,89.187294 209.701706,102.224136 238.105286,136.438690 
	C247.997101,148.354218 258.038971,160.145523 267.877502,172.104462 
	C269.028473,173.503510 269.318115,175.611145 270.143555,177.742691 
	C275.999695,177.742691 282.245972,177.742691 288.500549,177.742691 
	C289.909363,172.205963 288.863342,168.935928 283.101166,166.020111 
	C267.198975,157.973145 259.041168,138.760849 263.481445,122.481239 
	C268.697998,103.355644 284.391724,91.202057 303.214783,91.710884 
	C321.505035,92.205322 337.002960,105.064857 340.974640,123.042450 
	C344.771759,140.229843 336.671997,158.671844 320.804474,166.308243 
	C315.112427,169.047592 314.241669,172.281982 315.387054,177.708801 
	C321.577301,177.708801 327.834808,177.708801 333.293823,177.708801 
	C335.173553,174.803223 336.568695,172.131348 338.436768,169.846085 
	C347.818512,158.369064 357.251221,146.931915 366.799469,135.593094 
	C396.302032,100.557915 434.068481,88.413368 478.673187,95.464249 
	C496.118042,98.221840 513.552856,101.442589 531.304626,100.037521 
	C538.377686,99.477692 545.335754,97.536270 552.369995,96.366982 
	C554.171387,96.067535 556.063293,96.312691 557.913574,96.307648 
	C557.737854,98.141113 558.037659,100.190849 557.316589,101.776299 
	C540.895447,137.881821 514.082886,162.774338 476.669769,176.142685 
	C475.750763,176.471054 474.829681,176.793488 473.909698,177.993683 
	C478.207397,177.993683 482.505066,177.993225 486.802765,177.993820 
	C491.301910,177.994431 495.802521,177.923615 500.299927,178.012482 
	C509.314270,178.190598 515.981689,184.672333 516.111511,193.280762 
	C516.246033,202.202530 509.966492,208.869904 500.979095,209.011230 
	C491.316559,209.163162 481.649902,209.054596 471.985046,209.054886 
	C433.492218,209.056076 394.999420,209.055374 356.506592,209.055374 
	C354.697906,209.055374 352.889191,209.055389 351.459625,209.055389 
	C346.360718,301.966675 354.727570,393.920654 364.426483,487.035736 
	C375.291687,487.035736 386.402985,487.014343 397.514130,487.046173 
	C402.012787,487.059052 406.514404,487.104156 411.008942,487.280640 
	C422.638580,487.737305 430.497040,495.620789 430.273254,506.506622 
	C430.052032,517.267395 421.621338,524.949768 410.055511,524.730530 
	C390.896698,524.367432 371.739868,523.899475 352.582489,523.462219 
	C348.115814,523.360291 343.545380,523.767517 339.205780,522.958435 
	C329.511932,521.151062 322.865265,513.238831 322.029816,503.484589 
	C318.306274,460.012390 314.582214,416.540192 310.840912,373.069519 
	C309.941315,362.616821 308.926300,352.173828 308.064789,341.718109 
	C307.746033,337.849457 307.217773,333.964630 302.422729,333.730408 
	C297.507812,333.490387 296.668945,337.336884 296.338501,341.224396 
	C294.250793,365.783356 292.204437,390.345917 290.071869,414.900970 
	C287.521729,444.264740 285.054810,473.637634 282.139404,502.965576 
	C281.702454,507.360931 279.016663,511.532715 277.135345,516.084595 
z"/>
<path fill="#020202" opacity="1.000000" stroke="none" 
	d="
M454.828186,328.999908 
	C454.828186,314.507751 454.773560,300.515320 454.845398,286.523560 
	C454.903046,275.291260 456.586792,264.273529 462.016815,254.345245 
	C470.234772,239.319412 483.714874,232.818573 500.408081,231.546295 
	C523.027527,229.822388 540.777832,239.269943 549.287415,258.215118 
	C553.739929,268.127899 554.732788,278.764679 554.770447,289.406860 
	C554.928101,333.881287 555.064575,378.358734 554.646423,422.829803 
	C554.561890,431.818176 552.941711,441.047821 550.424622,449.699310 
	C546.369080,463.638428 536.684631,472.972137 522.708252,477.241028 
	C509.457977,481.288208 496.068939,481.162079 483.161072,475.977173 
	C466.773468,469.394592 459.019348,455.995300 456.216949,439.326019 
	C455.284363,433.778900 454.909698,428.079620 454.887238,422.447510 
	C454.763611,391.465393 454.828186,360.482544 454.828186,328.999908 
M516.833618,330.500061 
	C516.833557,315.833649 517.048218,301.162354 516.712463,286.503632 
	C516.601013,281.639069 515.920837,276.439331 514.009705,272.040649 
	C510.609192,264.214020 500.259277,263.648865 496.079224,271.086060 
	C493.939575,274.892975 492.984436,279.847443 492.964447,284.289856 
	C492.750763,331.788147 492.802338,379.287872 492.892242,426.786957 
	C492.898773,430.235382 493.412201,433.780396 494.323456,437.106964 
	C495.740601,442.279999 499.959320,445.226410 504.892242,445.167969 
	C509.752502,445.110382 513.568665,442.445953 514.944641,437.209351 
	C516.026733,433.091370 516.733948,428.746490 516.754150,424.498322 
	C516.901855,393.499512 516.833618,362.499634 516.833618,330.500061 
z"/>
<path fill="#020202" opacity="1.000000" stroke="none" 
	d="
M408.836761,310.000092 
	C408.836761,319.122467 408.836761,327.744781 408.836761,336.761719 
	C419.849152,336.761719 430.451263,336.761719 441.279114,336.761719 
	C441.279114,348.928772 441.279114,360.696594 441.279114,372.855652 
	C430.591278,372.855652 420.012604,372.855652 409.138153,372.855652 
	C409.138153,395.308929 409.138153,417.376404 409.138153,439.965027 
	C421.338715,439.965027 433.730133,439.965027 446.475006,439.965027 
	C446.475006,452.347198 446.475006,464.214752 446.475006,476.247101 
	C421.320251,476.247101 396.245483,476.247101 370.999878,476.247101 
	C370.999878,395.873444 370.999878,315.765259 370.999878,235.326904 
	C395.461212,235.326904 420.004944,235.326904 444.776611,235.326904 
	C444.776611,247.072357 444.776611,258.807190 444.776611,270.900574 
	C432.924286,270.900574 421.172333,270.900574 408.836761,270.900574 
	C408.836761,283.999359 408.836761,296.749725 408.836761,310.000092 
z"/>
<path fill="#FCFCFC" opacity="1.000000" stroke="none" 
	d="
M516.833618,331.000092 
	C516.833618,362.499634 516.901855,393.499512 516.754150,424.498322 
	C516.733948,428.746490 516.026733,433.091370 514.944641,437.209351 
	C513.568665,442.445953 509.752502,445.110382 504.892242,445.167969 
	C499.959320,445.226410 495.740601,442.279999 494.323456,437.106964 
	C493.412201,433.780396 492.898773,430.235382 492.892242,426.786957 
	C492.802338,379.287872 492.750763,331.788147 492.964447,284.289856 
	C492.984436,279.847443 493.939575,274.892975 496.079224,271.086060 
	C500.259277,263.648865 510.609192,264.214020 514.009705,272.040649 
	C515.920837,276.439331 516.601013,281.639069 516.712463,286.503632 
	C517.048218,301.162354 516.833557,315.833649 516.833618,331.000092 
z"/>
</svg>